<?xml version="1.0" encoding="utf-8"?>
<!-- Generator: Adobe Illustrator 15.0.0, SVG Export Plug-In . SVG Version: 6.00 Build 0)  -->
<!DOCTYPE svg PUBLIC "-//W3C//DTD SVG 1.1//EN" "http://www.w3.org/Graphics/SVG/1.1/DTD/svg11.dtd">
<svg version="1.1" id="Layer_1" xmlns="http://www.w3.org/2000/svg" xmlns:xlink="http://www.w3.org/1999/xlink" x="0px" y="0px"
	 width="135px" height="405px" viewBox="0 0 135 405" enable-background="new 0 0 135 405" xml:space="preserve">
<path fill="#FEBD13" stroke="#FDBD17" stroke-width="6" stroke-linecap="round" stroke-miterlimit="10" d="M109.237,101.174
	c-10.615-2.411-20.859-5.188-25.221-6.398V74.963c6.418-5.94,12.035-14.755,13.709-25.073c0.055,0.267,0.088,0.435,0.094,0.467
	c0,0.004,0.004,0.022,0.004,0.022s3.482-13.907-0.332-24.81C93.675,14.668,88.497,4.857,67.786,4.857
	c-20.713,0-25.891,9.811-29.705,20.712c-3.816,10.902-0.334,24.81-0.334,24.81s0.004-0.019,0.004-0.022
	c0.006-0.032,0.039-0.199,0.092-0.465c1.629,10.029,6.98,18.639,13.174,24.568v20.466c-4.625,1.277-14.482,3.932-24.682,6.249
	c-14.031,3.188-22.32,10.204-22.32,44.002c0,33.799,21.682,52.665,21.682,52.665l3.188,23.97h0.133v60h4v25h-4v13h2.951l5.667,32
	H27.017v50.333h80v-50.333h-9.719l5.668-32h4.051v-13h-5v-25h4v-60h0.668l3.189-23.97c0,0,21.682-18.681,21.682-52.479
	C131.556,111.564,123.265,104.361,109.237,101.174z"/>
<path fill="#222222" stroke="#51AB47" stroke-width="6" stroke-linecap="round" stroke-miterlimit="10" d="M-106.431,65.206
	c-10.615-2.412-20.859-5.188-25.221-6.398V38.995c6.418-5.94,12.035-14.755,13.711-25.073c0.053,0.267,0.086,0.435,0.092,0.467
	c0.002,0.004,0.004,0.022,0.004,0.022s3.484-13.907-0.332-24.81c-3.816-10.901-8.994-20.712-29.705-20.712
	c-20.713,0-25.891,9.811-29.705,20.712c-3.816,10.902-0.334,24.81-0.334,24.81s0.004-0.019,0.004-0.022
	c0.006-0.032,0.039-0.199,0.093-0.465c1.628,10.029,6.98,18.64,13.173,24.568v20.465c-4.624,1.277-14.481,3.932-24.682,6.25
	c-14.03,3.188-22.32,10.204-22.32,44.002c0,33.799,21.682,52.665,21.682,52.665l3.188,23.971h0.132v60h4v25h-4v13h2.951l5.667,32
	h-10.619v50.332h80v-50.332h-9.719l5.668-32h4.051v-13h-5v-25h4v-60h0.67l3.188-23.971c0,0,21.682-18.681,21.682-52.479
	C-84.112,75.596-92.401,68.393-106.431,65.206z"/>
</svg>
